<mxfile host="app.diagrams.net" modified="2020-10-26T03:37:08.320Z" agent="5.0 (Windows NT 10.0; Win64; x64) AppleWebKit/537.36 (KHTML, like Gecko) Chrome/86.0.4240.111 Safari/537.36" etag="gxG4ke94nEsmEo7TE5hx" version="13.8.1" type="github">
  <diagram id="x7_RaNHKIk9W14yIxWxZ" name="Page-1">
    <mxGraphModel dx="1695" dy="1619" grid="1" gridSize="10" guides="1" tooltips="1" connect="1" arrows="1" fold="1" page="1" pageScale="1" pageWidth="827" pageHeight="1169" math="0" shadow="0">
      <root>
        <mxCell id="0" />
        <mxCell id="1" parent="0" />
        <mxCell id="0C5YNieUSOCIkQrJdpW_-5" style="edgeStyle=orthogonalEdgeStyle;rounded=0;orthogonalLoop=1;jettySize=auto;html=1;" parent="1" source="0C5YNieUSOCIkQrJdpW_-1" target="0C5YNieUSOCIkQrJdpW_-4" edge="1">
          <mxGeometry relative="1" as="geometry" />
        </mxCell>
        <mxCell id="0C5YNieUSOCIkQrJdpW_-17" style="edgeStyle=orthogonalEdgeStyle;rounded=0;orthogonalLoop=1;jettySize=auto;html=1;" parent="1" source="0C5YNieUSOCIkQrJdpW_-1" target="0C5YNieUSOCIkQrJdpW_-16" edge="1">
          <mxGeometry relative="1" as="geometry" />
        </mxCell>
        <mxCell id="0C5YNieUSOCIkQrJdpW_-1" value="DATABASE" style="rounded=1;whiteSpace=wrap;html=1;" parent="1" vertex="1">
          <mxGeometry x="40" y="110" width="120" height="60" as="geometry" />
        </mxCell>
        <mxCell id="0C5YNieUSOCIkQrJdpW_-3" style="edgeStyle=orthogonalEdgeStyle;rounded=0;orthogonalLoop=1;jettySize=auto;html=1;" parent="1" source="0C5YNieUSOCIkQrJdpW_-2" target="0C5YNieUSOCIkQrJdpW_-1" edge="1">
          <mxGeometry relative="1" as="geometry" />
        </mxCell>
        <mxCell id="0C5YNieUSOCIkQrJdpW_-7" style="edgeStyle=orthogonalEdgeStyle;rounded=0;orthogonalLoop=1;jettySize=auto;html=1;entryX=1;entryY=0.5;entryDx=0;entryDy=0;" parent="1" source="0C5YNieUSOCIkQrJdpW_-2" target="0C5YNieUSOCIkQrJdpW_-6" edge="1">
          <mxGeometry relative="1" as="geometry">
            <Array as="points">
              <mxPoint x="480" y="30" />
              <mxPoint x="420" y="30" />
              <mxPoint x="420" y="-90" />
            </Array>
          </mxGeometry>
        </mxCell>
        <mxCell id="0C5YNieUSOCIkQrJdpW_-2" value="AIRFLOW" style="rounded=1;whiteSpace=wrap;html=1;" parent="1" vertex="1">
          <mxGeometry x="420" y="110" width="120" height="60" as="geometry" />
        </mxCell>
        <mxCell id="0C5YNieUSOCIkQrJdpW_-4" value="LINUX" style="rounded=1;whiteSpace=wrap;html=1;" parent="1" vertex="1">
          <mxGeometry x="40" y="230" width="120" height="60" as="geometry" />
        </mxCell>
        <mxCell id="0C5YNieUSOCIkQrJdpW_-6" value="Python" style="rounded=1;whiteSpace=wrap;html=1;" parent="1" vertex="1">
          <mxGeometry x="260" y="-120" width="120" height="60" as="geometry" />
        </mxCell>
        <mxCell id="0C5YNieUSOCIkQrJdpW_-14" style="edgeStyle=orthogonalEdgeStyle;rounded=0;orthogonalLoop=1;jettySize=auto;html=1;" parent="1" source="0C5YNieUSOCIkQrJdpW_-8" target="0C5YNieUSOCIkQrJdpW_-13" edge="1">
          <mxGeometry relative="1" as="geometry">
            <Array as="points">
              <mxPoint x="330" y="290" />
              <mxPoint x="330" y="390" />
              <mxPoint x="210" y="390" />
            </Array>
          </mxGeometry>
        </mxCell>
        <mxCell id="0C5YNieUSOCIkQrJdpW_-15" style="edgeStyle=orthogonalEdgeStyle;rounded=0;orthogonalLoop=1;jettySize=auto;html=1;entryX=1;entryY=0.5;entryDx=0;entryDy=0;" parent="1" source="0C5YNieUSOCIkQrJdpW_-8" target="0C5YNieUSOCIkQrJdpW_-4" edge="1">
          <mxGeometry relative="1" as="geometry" />
        </mxCell>
        <mxCell id="0C5YNieUSOCIkQrJdpW_-8" value="Hadoop" style="rounded=1;whiteSpace=wrap;html=1;" parent="1" vertex="1">
          <mxGeometry x="300" y="230" width="120" height="60" as="geometry" />
        </mxCell>
        <mxCell id="0C5YNieUSOCIkQrJdpW_-10" style="edgeStyle=orthogonalEdgeStyle;rounded=0;orthogonalLoop=1;jettySize=auto;html=1;" parent="1" source="0C5YNieUSOCIkQrJdpW_-9" target="0C5YNieUSOCIkQrJdpW_-8" edge="1">
          <mxGeometry relative="1" as="geometry" />
        </mxCell>
        <mxCell id="0C5YNieUSOCIkQrJdpW_-9" value="Hive" style="rounded=1;whiteSpace=wrap;html=1;" parent="1" vertex="1">
          <mxGeometry x="460" y="360" width="120" height="60" as="geometry" />
        </mxCell>
        <mxCell id="0C5YNieUSOCIkQrJdpW_-12" style="edgeStyle=orthogonalEdgeStyle;rounded=0;orthogonalLoop=1;jettySize=auto;html=1;entryX=1;entryY=0.5;entryDx=0;entryDy=0;" parent="1" source="0C5YNieUSOCIkQrJdpW_-11" target="0C5YNieUSOCIkQrJdpW_-8" edge="1">
          <mxGeometry relative="1" as="geometry" />
        </mxCell>
        <mxCell id="0C5YNieUSOCIkQrJdpW_-11" value="Spark" style="rounded=1;whiteSpace=wrap;html=1;" parent="1" vertex="1">
          <mxGeometry x="540" y="230" width="120" height="60" as="geometry" />
        </mxCell>
        <mxCell id="0C5YNieUSOCIkQrJdpW_-13" value="JAVA" style="rounded=1;whiteSpace=wrap;html=1;" parent="1" vertex="1">
          <mxGeometry x="120" y="360" width="120" height="60" as="geometry" />
        </mxCell>
        <mxCell id="0C5YNieUSOCIkQrJdpW_-16" value="SQL" style="rounded=1;whiteSpace=wrap;html=1;" parent="1" vertex="1">
          <mxGeometry x="-130" width="120" height="60" as="geometry" />
        </mxCell>
        <mxCell id="66OC84Vo4tXRKX-yNfe1-2" style="edgeStyle=orthogonalEdgeStyle;rounded=0;orthogonalLoop=1;jettySize=auto;html=1;entryX=0.5;entryY=0;entryDx=0;entryDy=0;" edge="1" parent="1" source="66OC84Vo4tXRKX-yNfe1-1" target="0C5YNieUSOCIkQrJdpW_-1">
          <mxGeometry relative="1" as="geometry" />
        </mxCell>
        <mxCell id="66OC84Vo4tXRKX-yNfe1-3" style="edgeStyle=orthogonalEdgeStyle;rounded=0;orthogonalLoop=1;jettySize=auto;html=1;entryX=0.25;entryY=0;entryDx=0;entryDy=0;" edge="1" parent="1" source="66OC84Vo4tXRKX-yNfe1-1" target="0C5YNieUSOCIkQrJdpW_-2">
          <mxGeometry relative="1" as="geometry">
            <Array as="points">
              <mxPoint x="210" y="-40" />
              <mxPoint x="210" y="60" />
              <mxPoint x="450" y="60" />
            </Array>
          </mxGeometry>
        </mxCell>
        <mxCell id="66OC84Vo4tXRKX-yNfe1-4" style="edgeStyle=orthogonalEdgeStyle;rounded=0;orthogonalLoop=1;jettySize=auto;html=1;entryX=0;entryY=0.5;entryDx=0;entryDy=0;" edge="1" parent="1" source="66OC84Vo4tXRKX-yNfe1-1" target="0C5YNieUSOCIkQrJdpW_-4">
          <mxGeometry relative="1" as="geometry">
            <Array as="points">
              <mxPoint x="-170" y="-40" />
              <mxPoint x="-170" y="260" />
            </Array>
          </mxGeometry>
        </mxCell>
        <mxCell id="66OC84Vo4tXRKX-yNfe1-1" value="Docker" style="rounded=1;whiteSpace=wrap;html=1;" vertex="1" parent="1">
          <mxGeometry x="40" y="-70" width="120" height="60" as="geometry" />
        </mxCell>
      </root>
    </mxGraphModel>
  </diagram>
</mxfile>
